<svg width="754" height="624" viewBox="0 0 754 624" fill="none" xmlns="http://www.w3.org/2000/svg">
<mask id="path-1-inside-1_210_116" fill="white">
<path fill-rule="evenodd" clip-rule="evenodd" d="M610 336.647L754 0L447.538 0L298.534 335.445H298L298 336.647L298 624H610V336.647Z"/>
</mask>
<path fill-rule="evenodd" clip-rule="evenodd" d="M610 336.647L754 0L447.538 0L298.534 335.445H298L298 336.647L298 624H610V336.647Z" fill="#F8F8F8"/>
<path d="M754 0L755.104 0.472062L755.819 -1.20032H754V0ZM610 336.647L608.896 336.175L608.8 336.401V336.647H610ZM447.538 0V-1.20032H446.758L446.441 -0.487273L447.538 0ZM298.534 335.445V336.645H299.314L299.631 335.932L298.534 335.445ZM298 335.445V334.245H296.8L296.8 335.445L298 335.445ZM298 336.647L296.8 336.647V336.647H298ZM298 624H296.8L296.8 625.2H298V624ZM610 624V625.2H611.2V624H610ZM752.896 -0.472062L608.896 336.175L611.104 337.119L755.104 0.472062L752.896 -0.472062ZM447.538 1.20032H754V-1.20032H447.538V1.20032ZM299.631 335.932L448.635 0.487273L446.441 -0.487273L297.437 334.958L299.631 335.932ZM298 336.645H298.534V334.245H298L298 336.645ZM299.2 336.647L299.2 335.445L296.8 335.445L296.8 336.647L299.2 336.647ZM299.2 624L299.2 336.647H296.8L296.8 624H299.2ZM610 622.8H298V625.2H610V622.8ZM608.8 336.647V624H611.2V336.647H608.8Z" fill="#EBEBEB" mask="url(#path-1-inside-1_210_116)"/>
<mask id="path-3-inside-2_210_116" fill="white">
<path fill-rule="evenodd" clip-rule="evenodd" d="M295.653 466.775L198.931 284H0L93.4737 467.43L93.4736 624H296V467.43H296L296 467.43V466.775H295.653Z"/>
</mask>
<path fill-rule="evenodd" clip-rule="evenodd" d="M295.653 466.775L198.931 284H0L93.4737 467.43L93.4736 624H296V467.43H296L296 467.43V466.775H295.653Z" fill="#F8F8F8"/>
<path d="M295.653 466.775V467.556H295.183L294.963 467.14L295.653 466.775ZM198.931 284V283.219H199.401L199.621 283.635L198.931 284ZM0 284L-0.695831 284.355L-1.27451 283.219H0V284ZM93.4737 467.43L94.1695 467.075L94.2547 467.242V467.43H93.4737ZM93.4736 624V624.781H92.6927V624H93.4736ZM296 624H296.781V624.781H296V624ZM296 467.43H295.219V466.649H296V467.43ZM296 467.43L296.695 467.073L297.279 468.211H296V467.43ZM296 467.43L295.305 467.786L295.219 467.618V467.43H296ZM296 466.775V465.994H296.781V466.775H296ZM294.963 467.14L198.241 284.365L199.621 283.635L296.344 466.409L294.963 467.14ZM198.931 284.781H0V283.219H198.931V284.781ZM0.695831 283.645L94.1695 467.075L92.7778 467.784L-0.695831 284.355L0.695831 283.645ZM94.2547 467.43L94.2546 624H92.6927L92.6927 467.43H94.2547ZM93.4736 623.219H296V624.781H93.4736V623.219ZM295.219 624V467.43H296.781V624H295.219ZM296 466.649H296V468.211H296V466.649ZM295.305 467.787L295.305 467.786L296.695 467.073L296.695 467.073L295.305 467.787ZM295.219 467.43V466.775H296.781V467.43H295.219ZM296 467.556H295.653V465.994H296V467.556Z" fill="#EBEBEB" mask="url(#path-3-inside-2_210_116)"/>
</svg>
