<svg width="380" height="520" viewBox="0 0 380 520" fill="none" xmlns="http://www.w3.org/2000/svg">
<mask id="path-1-inside-1_8_301" fill="white">
<path fill-rule="evenodd" clip-rule="evenodd" d="M380 0H120V240L0 520H255.385L380 240V0Z"/>
</mask>
<path fill-rule="evenodd" clip-rule="evenodd" d="M380 0H120V240L0 520H255.385L380 240V0Z" fill="#F8F8F8"/>
<path d="M120 0V-1H119V0H120ZM380 0H381V-1H380V0ZM120 240L120.919 240.394L121 240.205V240H120ZM0 520L-0.919145 519.606L-1.51654 521H0V520ZM255.385 520V521H256.034L256.298 520.407L255.385 520ZM380 240L380.914 240.407L381 240.212V240H380ZM120 1H380V-1H120V1ZM121 240V0H119V240H121ZM0.919145 520.394L120.919 240.394L119.081 239.606L-0.919145 519.606L0.919145 520.394ZM255.385 519H0V521H255.385V519ZM379.086 239.593L254.471 519.593L256.298 520.407L380.914 240.407L379.086 239.593ZM379 0V240H381V0H379Z" fill="#EBEBEB" mask="url(#path-1-inside-1_8_301)"/>
</svg>
